<svg width="29" height="32" viewBox="0 0 29 32" fill="none" xmlns="http://www.w3.org/2000/svg">
<circle cx="15.0296" cy="28.8389" r="2.61771" fill="#FCFFFF" stroke="#1E1E1C"/>
<path d="M6.47951 10.8593C7.10127 4.67174 11.8806 3.86282 14.64 3.8983C16.9324 3.86283 22.1787 4.67174 22.8005 10.8593C22.8005 12.9159 23.2092 16.7894 24.6195 19.707C25.6255 21.7881 28.2178 22.094 28.2796 24.4048C28.3444 26.8292 23.529 26.8078 21.1107 26.993L17.3601 27.2801H14.64H11.9199L8.16933 26.993C5.75105 26.8078 0.935553 26.8292 1.0004 24.4048C1.06221 22.094 3.65446 21.7881 4.66047 19.707C6.07078 16.7894 6.47951 12.9159 6.47951 10.8593Z" fill="#FCFFFF" stroke="#1E1E1C"/>
<circle cx="15.0294" cy="2.33829" r="1.83829" fill="#FCFFFF" stroke="#1E1E1C"/>
</svg>
